#!OML:ASF E:\emotionWalksFemale\Project 1\Capture day 1\Session 1\Female1.ASF
:FULLY-SPECIFIED
:DEGREES
875
root 10.4187 15.6879 -38.3219 185.895 -144.128 -181.673
lowerback 3.40788 0.397134 2.18092
upperback -4.67513 0.811341 2.758
thorax -6.79791 0.354655 1.58537
lowerneck -6.10752 8.7928 6.58239
upperneck 6.54297 11.8553 -7.9538
head 3.81512 5.70732 -2.78729
rclavicle -3.67752e-014 -1.19271e-014
rhumerus -45.9805 3.28695 -78.4352
rradius 32.5076
rwrist 18.6889
rhand -5.79313 -54.4701
rfingers 7.12502
rthumb 20.0312 636.542
lclavicle -3.67752e-014 -1.19271e-014
lhumerus -45.141 -13.0229 96.1206
lradius 41.9027
lwrist -17.0176
lhand -6.44705 -32.1734
lfingers 7.12502
lthumb 19.4026 -3.12142
rfemur -15.4597 -12.4406 31.001
rtibia 38.9401
rfoot -26.5336 -39.3929
rtoes 34.691
lfemur -5.73664 -8.77286 -22.8853
ltibia 27.7143
lfoot -22.9911 17.7088
ltoes -26.5871
876
root 10.4485 15.6858 -38.3421 185.622 -145.142 -181.295
lowerback 3.54731 0.366705 2.1529
upperback -4.59963 0.771573 2.71725
thorax -6.79724 0.336328 1.56097
lowerneck -6.20074 8.69887 6.23082
upperneck 6.41515 11.7373 -7.84232
head 3.7558 5.64499 -2.70871
rclavicle 6.28657e-014 1.27222e-014
rhumerus -45.9618 3.49509 -78.404
rradius 32.7542
rwrist 18.4945
rhand -5.97866 -54.1965
rfingers 7.12502
rthumb 19.8529 636.798
lclavicle 6.28657e-014 1.27222e-014
lhumerus -45.2704 -12.8495 95.8042
lradius 41.7978
lwrist -16.86
lhand -7.39513 -31.5706
lfingers 7.12502
lthumb 18.4908 -2.42939
rfemur -16.3195 -14.0155 30.6673
rtibia 40.1652
rfoot -25.7763 -38.8705
rtoes 36.1477
lfemur -5.53578 -9.63255 -23.1879
ltibia 26.891
lfoot -22.8445 17.7188
ltoes -25.8426
877
root 10.4769 15.6824 -38.3464 185.31 -145.922 -180.901
lowerback 3.48927 0.385179 2.22558
upperback -4.48168 0.791456 2.6295
thorax -6.63573 0.341823 1.42546
lowerneck -6.1279 8.59796 5.94643
upperneck 6.21366 11.6127 -7.79224
head 3.65475 5.58388 -2.66767
rclavicle 6.5102e-014 -2.62396e-014
rhumerus -46.0502 3.95998 -78.5301
rradius 33.2007
rwrist 18.0951
rhand -6.15564 -54.3813
rfingers 7.12502
rthumb 19.6827 636.595
lclavicle 6.5102e-014 -2.62396e-014
lhumerus -45.5774 -12.8365 95.6033
lradius 41.7037
lwrist -17.4996
lhand -9.80091 -30.0791
lfingers 7.12502
lthumb 16.1754 -0.734031
rfemur -17.0789 -14.9544 30.1963
rtibia 41.4505
rfoot -25.9103 -38.0908
rtoes 38.8665
lfemur -5.22326 -10.443 -23.6424
ltibia 26.0945
lfoot -22.885 18.0141
ltoes -25.0784
878
root 10.5073 15.6803 -38.3751 185.178 -147.021 -180.465
lowerback 3.56862 0.329034 1.97447
upperback -4.49459 0.707954 2.69658
thorax -6.69823 0.315061 1.64408
lowerneck -6.05202 8.45931 5.52
upperneck 5.99887 11.4578 -7.84967
head 3.54627 5.50059 -2.63933
rclavicle 9.20373e-014 -2.3059e-014
rhumerus -45.9926 4.34074 -78.3475
rradius 33.5425
rwrist 17.8402
rhand -6.3096 -54.3891
rfingers 7.12502
rthumb 19.5347 636.572
lclavicle 9.20373e-014 -2.3059e-014
lhumerus -45.839 -12.6866 95.5728
lradius 42.1357
lwrist -17.2675
lhand -9.68458 -26.8628
lfingers 7.12502
lthumb 16.2874 2.4732
rfemur -18.1411 -15.5922 29.8257
rtibia 42.8077
rfoot -26.3641 -37.5586
rtoes 41.4695
lfemur -5.24289 -11.2107 -23.9791
ltibia 25.33
lfoot -22.6866 18.1536
ltoes -25.2475
879
root 10.5359 15.6748 -38.4081 184.894 -148.08 -180.043
lowerback 3.84128 0.29257 1.69984
upperback -4.44422 0.654143 2.75733
thorax -6.80531 0.304453 1.86626
lowerneck -6.10607 8.27464 5.10172
upperneck 5.91229 11.2462 -7.94944
head 3.49777 5.38271 -2.61993
rclavicle -5.80451e-014 1.59028e-015
rhumerus -45.8829 4.69563 -78.1846
rradius 33.9362
rwrist 17.5351
rhand -6.37754 -54.6145
rfingers 7.12502
rthumb 19.4694 636.34
lclavicle -5.80451e-014 1.59028e-015
lhumerus -45.6698 -11.576 94.5189
lradius 41.4433
lwrist -18.0539
lhand -9.44194 -30.2696
lfingers 7.12502
lthumb 16.521 -0.952893
rfemur -18.9862 -16.1783 29.4226
rtibia 44.171
rfoot -26.0366 -37.2821
rtoes 42.8063
lfemur -5.14352 -10.2992 -24.1347
ltibia 24.5546
lfoot -22.0975 16.9673
ltoes -26.7925
880
root 10.5676 15.6525 -38.4245 184.172 -148.948 -179.691
lowerback 4.33715 0.392902 1.75268
upperback -4.24891 0.797563 2.58966
thorax -6.8836 0.369211 1.644
lowerneck -5.9527 7.93935 5.23741
upperneck 5.76487 10.7969 -8.18083
head 3.41929 5.1612 -2.74936
rclavicle -4.88513e-014 4.77083e-015
rhumerus -46.0527 4.71623 -78.23
rradius 34.488
rwrist 17.0979
rhand -6.41266 -54.829
rfingers 7.12502
rthumb 19.4356 636.122
lclavicle -4.88513e-014 4.77083e-015
lhumerus -45.7341 -11.5473 93.7924
lradius 41.1706
lwrist -17.898
lhand -8.71103 -30.2184
lfingers 7.12502
lthumb 17.2246 -0.961762
rfemur -19.2236 -16.7711 28.805
rtibia 45.5593
rfoot -25.1086 -36.7906
rtoes 43.9837
lfemur -4.35373 -10.7148 -24.6218
ltibia 23.8045
lfoot -22.1627 16.8888
ltoes -26.3476
881
root 10.5988 15.6424 -38.4563 184.022 -150.244 -179.351
lowerback 4.51036 0.521568 1.89582
upperback -4.36808 0.968177 2.18519
thorax -7.10313 0.434599 1.12191
lowerneck -5.34495 7.39854 5.96487
upperneck 5.41563 10.0318 -8.47437
head 3.21431 4.80907 -3.02952
rclavicle -6.97734e-014 2.3059e-014
rhumerus -46.6246 4.01367 -78.3485
rradius 35.2077
rwrist 16.7573
rhand -6.325 -54.8453
rfingers 7.12502
rthumb 19.5199 636.115
lclavicle -6.97734e-014 2.3059e-014
lhumerus -46.0352 -12.3783 93.1023
lradius 41.0049
lwrist -17.5333
lhand -8.10014 -29.6841
lfingers 7.12502
lthumb 17.8125 -0.479925
rfemur -20.1058 -17.3887 28.416
rtibia 46.9465
rfoot -23.208 -36.3145
rtoes 44.7079
lfemur -4.16122 -12.9347 -25.0984
ltibia 23.0365
lfoot -22.4161 18.0641
ltoes -25.3994
882
root 10.6262 15.6314 -38.4782 183.869 -151.336 -179.029
lowerback 4.5128 0.387782 1.8063
upperback -4.25372 0.785798 2.28615
thorax -6.98403 0.353299 1.29638
lowerneck -5.3482 7.21862 5.42161
upperneck 5.16813 9.81966 -8.54511
head 3.10275 4.69437 -2.98399
rclavicle -3.76697e-014 6.36111e-015
rhumerus -46.468 4.79429 -78.2572
rradius 35.9136
rwrist 16.2348
rhand -6.12648 -54.9561
rfingers 7.12502
rthumb 19.7108 636.023
lclavicle -3.76697e-014 6.36111e-015
lhumerus -45.9314 -11.5443 92.4374
lradius 40.8174
lwrist -17.7128
lhand -8.16645 -29.4451
lfingers 7.12502
lthumb 17.7487 -0.235097
rfemur -20.8852 -17.6953 27.9186
rtibia 48.3583
rfoot -20.1179 -35.6425
rtoes 44.018
lfemur -4.03857 -12.9243 -25.3591
ltibia 22.3057
lfoot -21.9763 17.9182
ltoes -28.2173
883
root 10.6525 15.6076 -38.5054 183.567 -151.947 -178.714
lowerback 4.79961 0.506902 1.64875
upperback -4.19937 0.941524 2.26924
thorax -7.09596 0.437649 1.3488
lowerneck -5.19237 6.93609 5.25872
upperneck 4.84853 9.43068 -8.38541
head 3.26007 4.53018 -3.2726
rclavicle -1.23743e-014 -1.35174e-014
rhumerus -46.5715 5.18851 -78.1731
rradius 36.6273
rwrist 15.7971
rhand -6.12215 -55.0887
rfingers 7.12502
rthumb 19.7149 635.891
lclavicle -1.23743e-014 -1.35174e-014
lhumerus -46.0602 -11.046 91.7015
lradius 40.7426
lwrist -17.8562
lhand -7.84054 -29.4189
lfingers 7.12502
lthumb 18.0623 -0.237565
rfemur -21.4116 -17.3256 27.2972
rtibia 49.7308
rfoot -18.4358 -34.9029
rtoes 43.3152
lfemur -3.69785 -13.1583 -25.7346
ltibia 21.6569
lfoot -22.1098 17.92
ltoes -28.2052
884
root 10.684 15.5745 -38.5378 183.367 -152.556 -178.489
lowerback 5.18872 0.621081 1.62723
upperback -4.22603 1.10564 2.24253
thorax -7.3524 0.518104 1.31218
lowerneck -4.87598 6.65603 5.0914
upperneck 4.68462 9.06989 -8.4572
head 3.10979 4.35579 -3.29905
rclavicle 1.799e-014 -1.51076e-014
rhumerus -46.753 5.62813 -78.1301
rradius 37.3344
rwrist 15.3148
rhand -6.27074 -54.7837
rfingers 7.12502
rthumb 19.5721 636.181
lclavicle 1.799e-014 -1.51076e-014
lhumerus -46.2532 -10.6433 90.949
lradius 40.8028
lwrist -17.8528
lhand -7.27814 -29.1718
lfingers 7.12502
lthumb 18.6033 -0.0413526
rfemur -21.9539 -16.7454 26.7385
rtibia 51.0066
rfoot -18.2931 -34.0289
rtoes 42.9582
lfemur -3.52023 -14.0151 -26.06
ltibia 21.1592
lfoot -22.7564 17.8953
ltoes -25.2923
885
root 10.7088 15.543 -38.5667 183.284 -153.279 -178.476
lowerback 5.34451 0.583403 1.69321
upperback -3.96331 1.07134 2.43449
thorax -7.16499 0.504467 1.47833
lowerneck -5.48886 6.56308 4.49876
upperneck 4.60795 8.96388 -8.443
head 3.15388 4.2782 -3.17334
rclavicle -1.73937e-014 2.70347e-014
rhumerus -46.2223 6.43536 -77.9705
rradius 37.9345
rwrist 14.7949
rhand -6.46231 -54.4586
rfingers 7.12502
rthumb 19.3879 636.488
lclavicle -1.73937e-014 2.70347e-014
lhumerus -45.8918 -9.87621 90.2367
lradius 40.7376
lwrist -17.855
lhand -8.48099 -28.5272
lfingers 7.12502
lthumb 17.446 0.709893
rfemur -22.3648 -16.1629 26.3698
rtibia 52.1131
rfoot -18.2929 -32.6638
rtoes 42.7582
lfemur -3.45514 -14.738 -26.1241
ltibia 20.8783
lfoot -23.2251 17.8154
ltoes -24.4251
